<svg id="Layer_1" data-name="Layer 1" xmlns="http://www.w3.org/2000/svg" xmlns:xlink="http://www.w3.org/1999/xlink" viewBox="0 0 384.51 52.09"><defs><style>.cls-1{fill:url(#linear-gradient);}.cls-2{fill:url(#linear-gradient-2);}.cls-3{fill:url(#linear-gradient-3);}.cls-4{fill:url(#linear-gradient-4);}.cls-5{fill:url(#linear-gradient-5);}.cls-6{fill:url(#linear-gradient-6);}.cls-7{fill:url(#linear-gradient-7);}.cls-8{fill:url(#linear-gradient-8);}.cls-9{fill:url(#linear-gradient-9);}.cls-10{fill:#fff;}</style><linearGradient id="linear-gradient" x1="6.56" y1="50.09" x2="6.56" y2="43.68" gradientUnits="userSpaceOnUse"><stop offset="0" stop-color="#ed5791"/><stop offset="1" stop-color="#86509f"/></linearGradient><linearGradient id="linear-gradient-2" x1="25.31" y1="50.88" x2="25.31" y2="42.89" xlink:href="#linear-gradient"/><linearGradient id="linear-gradient-3" x1="45.49" y1="52.09" x2="45.49" y2="41.68" xlink:href="#linear-gradient"/><linearGradient id="linear-gradient-4" x1="6.56" y1="34.57" x2="6.56" y2="24.17" xlink:href="#linear-gradient"/><linearGradient id="linear-gradient-5" x1="25.31" y1="35.11" x2="25.31" y2="23.64" xlink:href="#linear-gradient"/><linearGradient id="linear-gradient-6" x1="45.49" y1="35.87" x2="45.49" y2="22.87" xlink:href="#linear-gradient"/><linearGradient id="linear-gradient-7" x1="6.56" y1="15.1" x2="6.56" y2="1.98" xlink:href="#linear-gradient"/><linearGradient id="linear-gradient-8" x1="25.31" y1="16.53" x2="25.31" y2="0.55" xlink:href="#linear-gradient"/><linearGradient id="linear-gradient-9" x1="45.49" y1="17.08" x2="45.49" y2="0" xlink:href="#linear-gradient"/></defs><circle class="cls-1" cx="6.56" cy="46.89" r="3.2"/><circle class="cls-2" cx="25.31" cy="46.89" r="4"/><circle class="cls-3" cx="45.49" cy="46.89" r="5.21"/><circle class="cls-4" cx="6.56" cy="29.37" r="5.2"/><circle class="cls-5" cx="25.31" cy="29.37" r="5.73"/><circle class="cls-6" cx="45.49" cy="29.37" r="6.5"/><circle class="cls-7" cx="6.56" cy="8.54" r="6.56"/><circle class="cls-8" cx="25.31" cy="8.54" r="7.99"/><circle class="cls-9" cx="45.49" cy="8.54" r="8.54"/><path class="cls-10" d="M90.88,26a8.07,8.07,0,0,0-2.39-5.61,7.42,7.42,0,0,0-5.39-2.25,7.73,7.73,0,0,0-3,.6,7.42,7.42,0,0,0-2.46,1.68A8.3,8.3,0,0,0,76,22.94a7.66,7.66,0,0,0-.63,3l-.11,22.23a2.26,2.26,0,0,1-.7,1.69,2.4,2.4,0,0,1-3.37,0,2.3,2.3,0,0,1-.68-1.69l.11-22.23a12.57,12.57,0,0,1,1-4.9,12,12,0,0,1,2.67-4,12.7,12.7,0,0,1,4-2.67,12.34,12.34,0,0,1,4.92-1,12,12,0,0,1,5.81,1.45,12.56,12.56,0,0,1,4.28,3.81,13.37,13.37,0,0,1,4.38-3.77,12.11,12.11,0,0,1,5.84-1.39,12.28,12.28,0,0,1,4.9,1,12.89,12.89,0,0,1,4,2.71,12.55,12.55,0,0,1,2.66,4,12.27,12.27,0,0,1,1,4.91l-.12,22.22a2.29,2.29,0,0,1-.69,1.69,2.38,2.38,0,0,1-4.06-1.71l.11-22.23a7.55,7.55,0,0,0-.59-3,8,8,0,0,0-4.16-4.2,7.64,7.64,0,0,0-8.52,1.65A8.49,8.49,0,0,0,96.26,23a7.68,7.68,0,0,0-.63,3l-.11,22.22a2.26,2.26,0,0,1-.7,1.69,2.38,2.38,0,0,1-4-1.71Z"/><path class="cls-10" d="M127.6,34.58a13,13,0,0,0,1.59,4.57,13.69,13.69,0,0,0,3,3.65,13.88,13.88,0,0,0,4.09,2.44,13.48,13.48,0,0,0,4.82.9,13.3,13.3,0,0,0,5.29-1,14.31,14.31,0,0,0,4.39-2.85,2.38,2.38,0,0,1,3.35,3.39,14.31,14.31,0,0,1-5.73,4,21,21,0,0,1-7.32,1.15,18.58,18.58,0,0,1-13-5.28,17.68,17.68,0,0,1-4-5.84,18.28,18.28,0,0,1-1.42-7.37,18,18,0,0,1,1.45-7.16,18.23,18.23,0,0,1,3.94-5.8,18.75,18.75,0,0,1,5.92-4,20.13,20.13,0,0,1,7.4-1.61,16.78,16.78,0,0,1,6.93,1.49,19.77,19.77,0,0,1,5.77,3.94,18.59,18.59,0,0,1,4,5.77,18.83,18.83,0,0,1,1.61,7.06,2.12,2.12,0,0,1-.66,2,2.67,2.67,0,0,1-1.73.68Zm13.65-15.95a13,13,0,0,0-4.8.85,14.56,14.56,0,0,0-4.07,2.36,12.89,12.89,0,0,0-3,3.55,14.18,14.18,0,0,0-1.67,4.44l27.06.13a13.85,13.85,0,0,0-1.67-4.45,13.37,13.37,0,0,0-3-3.58,14.42,14.42,0,0,0-4.05-2.4A13,13,0,0,0,141.25,18.63Z"/><path class="cls-10" d="M165.5,3.8a2.32,2.32,0,0,1,.7-1.68,2.39,2.39,0,0,1,3.37,0,2.26,2.26,0,0,1,.68,1.69l0,9.81,16.94.09a2.74,2.74,0,0,1,1.95.7,2.31,2.31,0,0,1,0,3.37,2.69,2.69,0,0,1-2,.68l-16.94-.08-.07,14.18a13.24,13.24,0,0,0,1,5.33,13.64,13.64,0,0,0,2.93,4.38,14,14,0,0,0,4.35,3,13.22,13.22,0,0,0,5.32,1.09,13.52,13.52,0,0,0,5.3-1,13.26,13.26,0,0,0,4.3-2.86,2.53,2.53,0,0,1,3.38-.29,2.85,2.85,0,0,1,.76,1.54,2.49,2.49,0,0,1-.39,1.76,17.94,17.94,0,0,1-6,4.15,18.47,18.47,0,0,1-7.37,1.46,18.15,18.15,0,0,1-7.2-1.49,18.49,18.49,0,0,1-9.76-9.86,18.06,18.06,0,0,1-1.42-7.22Z"/><path class="cls-10" d="M219.8,14.19a16.87,16.87,0,0,1,7,1.53,19.26,19.26,0,0,1,9.84,10,17.75,17.75,0,0,1,1.46,7.22L238,49.08a2.3,2.3,0,0,1-.7,1.68,2.38,2.38,0,0,1-4-1.71l0-4.67a24.38,24.38,0,0,1-6.12,4.84,15.34,15.34,0,0,1-7.71,2,18.58,18.58,0,0,1-13-5.28,18,18,0,0,1-3.95-5.84,18.45,18.45,0,0,1-1.42-7.37,18,18,0,0,1,1.45-7.16,18.38,18.38,0,0,1,3.94-5.81,19,19,0,0,1,5.92-3.95A20.14,20.14,0,0,1,219.8,14.19Zm-14,18.55a13.29,13.29,0,0,0,1,5.34,13.87,13.87,0,0,0,7.28,7.35,13.7,13.7,0,0,0,10.54.09,13.83,13.83,0,0,0,7.35-7.16,15.46,15.46,0,0,0,1.3-5.48,13.53,13.53,0,0,0-1-5.37,13.76,13.76,0,0,0-2.93-4.42,13.93,13.93,0,0,0-4.39-3A13.69,13.69,0,0,0,219.62,19a13.4,13.4,0,0,0-5.33,1A14,14,0,0,0,209.9,23a13.81,13.81,0,0,0-4.07,9.75Z"/><path class="cls-10" d="M260.51,49.11a2.36,2.36,0,0,1-2.39,2.37,12.73,12.73,0,0,1-5.89-1.41,12.42,12.42,0,0,1-6-7.31,13.85,13.85,0,0,1-.63-3.84l.17-34.72a2.37,2.37,0,0,1,2.39-2.37,2.3,2.3,0,0,1,1.68.7,2.31,2.31,0,0,1,.69,1.69l-.18,34.72a10.17,10.17,0,0,0,.26,1.85,7.85,7.85,0,0,0,1.1,2.53,7.94,7.94,0,0,0,2.37,2.31,7.68,7.68,0,0,0,4,1.09,2.36,2.36,0,0,1,2.37,2.39Z"/><path class="cls-10" d="M267.05,35.27a12.81,12.81,0,0,0,1.58,4.57,13.77,13.77,0,0,0,7.1,6.09,13.33,13.33,0,0,0,4.83.91,13.47,13.47,0,0,0,5.29-1A14,14,0,0,0,290.23,43a2.38,2.38,0,0,1,4.06,1.71,2.3,2.3,0,0,1-.7,1.68,14.35,14.35,0,0,1-5.73,4,20.78,20.78,0,0,1-7.33,1.15,18.42,18.42,0,0,1-13-5.28,17.86,17.86,0,0,1-4-5.84A18.41,18.41,0,0,1,262.15,33a18.27,18.27,0,0,1,5.39-13,19.26,19.26,0,0,1,5.93-4,20.24,20.24,0,0,1,7.4-1.61A16.82,16.82,0,0,1,287.8,16a20,20,0,0,1,5.77,3.94,18.83,18.83,0,0,1,5.6,12.83,2.12,2.12,0,0,1-.66,2,2.63,2.63,0,0,1-1.72.68Zm13.64-16a13,13,0,0,0-4.79.86,14.73,14.73,0,0,0-4.08,2.35,13.18,13.18,0,0,0-3,3.55,14.28,14.28,0,0,0-1.67,4.44l27.05.13a13.83,13.83,0,0,0-1.66-4.45,13.53,13.53,0,0,0-3-3.58,15,15,0,0,0-4-2.4A13.24,13.24,0,0,0,280.69,19.32Z"/><path class="cls-10" d="M304.78,32.93a18,18,0,0,1,1.49-7.2A18.49,18.49,0,0,1,316.13,16a18.57,18.57,0,0,1,14.41.07,18.49,18.49,0,0,1,9.76,9.86,17.85,17.85,0,0,1,1.42,7.21l-.08,16.41a2.26,2.26,0,0,1-.7,1.68,2.38,2.38,0,0,1-4.05-1.71l.08-16.4a13.24,13.24,0,0,0-1.05-5.33,13.84,13.84,0,0,0-7.28-7.36,13.4,13.4,0,0,0-5.32-1.1A13.24,13.24,0,0,0,318,20.35a13.84,13.84,0,0,0-7.36,7.28,13.4,13.4,0,0,0-1.1,5.32l-.08,16.41a2.34,2.34,0,0,1-.7,1.68,2.4,2.4,0,0,1-3.37,0,2.25,2.25,0,0,1-.68-1.69Z"/><path class="cls-10" d="M348,51.23a2.25,2.25,0,0,1-.69-1.65,2.55,2.55,0,0,1,.7-1.72l28.28-28.22-26.37-.13a2.36,2.36,0,0,1-2.37-2.39,2.34,2.34,0,0,1,.7-1.68,2.26,2.26,0,0,1,1.69-.68l32.19.16a2.35,2.35,0,0,1,1.69.77,2,2,0,0,1,.6,1.65,2.82,2.82,0,0,1-.77,1.72L355.39,47.21l26.76.13a2.3,2.3,0,0,1,1.68.7,2.34,2.34,0,0,1,.68,1.69,2.3,2.3,0,0,1-.7,1.68,2.25,2.25,0,0,1-1.69.68l-32.42-.16A2.23,2.23,0,0,1,348,51.23Z"/></svg>